<?xml version="1.0" encoding="UTF-8" standalone="no"?><svg xmlns="http://www.w3.org/2000/svg" xmlns:xlink="http://www.w3.org/1999/xlink" clip-rule="evenodd" stroke-miterlimit="4.00" viewBox="0 0 1024 768"><desc>SVG generated by Keynote</desc><defs><linearGradient id="gradSh1.4" x1="0.0" y1="0.0" x2="100.0" y2="0.0" gradientUnits="userSpaceOnUse" gradientTransform="matrix(0.00, -3.68, -10.33, 0.00, 512.0, 364.8)"><stop offset="0.00000" stop-color="#000000"></stop><stop offset="0.00293" stop-color="#000001"></stop><stop offset="0.00513" stop-color="#000101"></stop><stop offset="0.00806" stop-color="#000102"></stop><stop offset="0.01393" stop-color="#000103"></stop><stop offset="0.01540" stop-color="#000203"></stop><stop offset="0.01833" stop-color="#000204"></stop><stop offset="0.02419" stop-color="#000205"></stop><stop offset="0.03519" stop-color="#000407"></stop><stop offset="0.03959" stop-color="#000408"></stop><stop offset="0.04545" stop-color="#000509"></stop><stop offset="0.07478" stop-color="#00080E"></stop><stop offset="0.07551" stop-color="#00080F"></stop><stop offset="0.15323" stop-color="#00101E"></stop><stop offset="0.15836" stop-color="#00101F"></stop><stop offset="0.31158" stop-color="#00203C"></stop><stop offset="0.31452" stop-color="#00203D"></stop><stop offset="0.62757" stop-color="#004079"></stop><stop offset="0.63123" stop-color="#00407A"></stop><stop offset="1.00000" stop-color="#0065C1"></stop></linearGradient></defs><g transform="matrix(1.00, 0.00, -0.00, -1.00, 0.0, 768.0)"><path d="M 0.0 768.0 L 1024.0 768.0 L 1024.0 0.0 L 0.0 0.0 Z M 0.0 768.0 " fill="#000000"></path><g><clipPath id="clip-5"><path d="M -3.5 363.8 L 1027.5 363.8 L 1027.5 -2.4 L -3.5 -2.4 Z M -3.5 363.8 "></path></clipPath><g clip-path="url(#clip-5)"><path d="M -3.5 363.8 L 1027.5 363.8 L 1027.5 -2.4 L -3.5 -2.4 Z M -3.5 363.8 " fill="url(#gradSh1.4)"></path></g></g><image xlink:href="../../04F06979-5FEF-423B-AA1B-D6C2657CBA36/assets/F46B239D24C76D60930270D3E3C79107.png" width="775.00" height="451.00" transform="matrix(1.00, 0.00, -0.00, -1.00, 125.0, 645.0)"></image><image xlink:href="../../04F06979-5FEF-423B-AA1B-D6C2657CBA36/assets/12BB079CD285314F121AF1E93BDA1CF3.png" width="3229.00" height="505.00" transform="matrix(0.24, 0.00, -0.00, -0.24, 124.6, 193.5)"></image><image xlink:href="../../39451CEE-E280-41CA-872D-216C9FC86FAF/assets/8BDFFC25FD6E0E408561D3422E8674C6.png" width="66.00" height="24.00" transform="matrix(1.00, 0.00, -0.00, -1.00, 8.0, 32.0)"></image><image xlink:href="../../39451CEE-E280-41CA-872D-216C9FC86FAF/assets/7C899795E4BC5D36DCE5EECDFB002446.png" width="347.00" height="212.00" transform="matrix(0.24, 0.00, -0.00, -0.24, 927.0, 58.0)"></image></g></svg>